<svg xmlns="http://www.w3.org/2000/svg" xmlns:xlink="http://www.w3.org/1999/xlink" width="800" zoomAndPan="magnify" viewBox="0 0 600 374.999991" height="500" preserveAspectRatio="xMidYMid meet" version="1.2"><defs><clipPath id="bbd8374707"><path d="M 111 229 L 341.414062 229 L 341.414062 310 L 111 310 Z M 111 229 "/></clipPath></defs><g id="170836deb3"><path style=" stroke:none;fill-rule:nonzero;fill:#000000;fill-opacity:1;" d="M 233.175781 330.9375 C 237.296875 329.714844 241.3125 328.304688 245.21875 326.734375 C 177.613281 340.113281 109.695312 300.046875 89.6875 232.664062 C 69.675781 165.277344 104.71875 94.636719 168.667969 68.949219 C 164.535156 69.765625 160.402344 70.773438 156.28125 71.996094 C 84.777344 93.230469 44.023438 168.410156 65.257812 239.917969 C 86.492188 311.421875 161.671875 352.171875 233.175781 330.9375 "/><path style=" stroke:none;fill-rule:nonzero;fill:#0107ff;fill-opacity:1;" d="M 65.835938 296.660156 C 69.421875 299.472656 73.101562 302.074219 76.855469 304.492188 C 23.828125 254.261719 16.800781 170.984375 62.769531 112.355469 C 108.738281 53.730469 191.289062 40.691406 252.714844 80.210938 C 249.472656 77.140625 246.070312 74.183594 242.484375 71.375 C 180.273438 22.59375 90.296875 33.484375 41.515625 95.691406 C -7.261719 157.902344 3.625 247.878906 65.835938 296.660156 "/><g clip-rule="nonzero" clip-path="url(#bbd8374707)"><path style=" stroke:none;fill-rule:nonzero;fill:#0107ff;fill-opacity:1;" d="M 198.945312 290.121094 C 162.054688 280.203125 131.710938 258.085938 111.074219 229.28125 C 127.339844 265.203125 158.964844 293.828125 200.019531 304.859375 C 253.648438 319.277344 308.398438 299.65625 341.347656 259.222656 C 303.035156 290.792969 250.539062 303.988281 198.945312 290.121094 "/></g><g style="fill:#000000;fill-opacity:1;"><g transform="translate(111.72209, 221.064455)"><path style="stroke:none" d="M 0.734375 0 L 9.59375 -50.9375 L 24.21875 -50.90625 C 27.644531 -50.832031 30.726562 -50.054688 33.46875 -48.578125 C 36.207031 -47.097656 38.425781 -44.96875 40.125 -42.1875 C 41.832031 -39.414062 42.859375 -36.289062 43.203125 -32.8125 C 43.390625 -30.789062 43.367188 -28.71875 43.140625 -26.59375 L 42.890625 -24.734375 C 41.867188 -17.273438 38.9375 -11.285156 34.09375 -6.765625 C 29.257812 -2.253906 23.390625 0 16.484375 0 Z M 18.375 -42.4375 L 12.453125 -8.4375 L 16.71875 -8.390625 C 21.4375 -8.390625 25.222656 -10.113281 28.078125 -13.5625 C 30.929688 -17.019531 32.570312 -22.238281 33 -29.21875 L 33.0625 -30.328125 C 33.132812 -34.179688 32.398438 -37.132812 30.859375 -39.1875 C 29.316406 -41.238281 27.019531 -42.3125 23.96875 -42.40625 Z M 18.375 -42.4375 "/></g></g><g style="fill:#000000;fill-opacity:1;"><g transform="translate(153.865463, 221.064455)"><path style="stroke:none" d="M 34.15625 -20.8125 L 14.625 -20.8125 L 10.984375 0 L 0.734375 0 L 9.59375 -50.9375 L 41.84375 -50.9375 L 40.34375 -42.4375 L 18.375 -42.4375 L 16.0625 -29.28125 L 35.65625 -29.28125 Z M 34.15625 -20.8125 "/></g></g><g style="fill:#000000;fill-opacity:1;"><g transform="translate(188.907512, 221.064455)"><path style="stroke:none" d="M 41.8125 -14.796875 L 54.09375 -50.9375 L 64.546875 -50.9375 L 45.625 0 L 35.296875 0 L 32.609375 -33.9375 L 19.28125 0 L 8.953125 0 L 5.953125 -50.9375 L 15.953125 -50.9375 L 16.96875 -14.96875 L 30.6875 -50.9375 L 39.390625 -50.9375 Z M 41.8125 -14.796875 "/></g></g><g style="fill:#0107ff;fill-opacity:1;"><g transform="translate(250.046242, 217.350538)"><path style="stroke:none" d="M 36.1875 -5.609375 C 34.601562 -3.597656 32.28125 -2.046875 29.21875 -0.953125 C 26.164062 0.128906 22.722656 0.640625 18.890625 0.578125 C 15.859375 0.554688 13.195312 -0.101562 10.90625 -1.40625 C 8.613281 -2.71875 6.804688 -4.601562 5.484375 -7.0625 C 4.160156 -9.519531 3.410156 -12.320312 3.234375 -15.46875 C 3.023438 -18.394531 3.332031 -21.832031 4.15625 -25.78125 C 4.976562 -29.738281 6.390625 -33.203125 8.390625 -36.171875 C 10.390625 -39.148438 12.789062 -41.375 15.59375 -42.84375 C 18.394531 -44.320312 21.503906 -45.03125 24.921875 -44.96875 C 29.546875 -44.882812 33.164062 -43.578125 35.78125 -41.046875 C 38.40625 -38.515625 39.90625 -34.894531 40.28125 -30.1875 L 31.6875 -30.21875 C 31.457031 -32.695312 30.796875 -34.523438 29.703125 -35.703125 C 28.609375 -36.878906 26.972656 -37.507812 24.796875 -37.59375 C 21.035156 -37.71875 18.070312 -36.066406 15.90625 -32.640625 C 13.75 -29.222656 12.519531 -24.265625 12.21875 -17.765625 C 12.007812 -14.285156 12.539062 -11.59375 13.8125 -9.6875 C 15.082031 -7.78125 17.019531 -6.804688 19.625 -6.765625 C 22.644531 -6.679688 25.222656 -7.398438 27.359375 -8.921875 L 28.84375 -16.578125 L 20.75 -16.578125 L 21.9375 -23.3125 L 38.875 -23.3125 Z M 36.1875 -5.609375 "/></g></g><g style="fill:#0107ff;fill-opacity:1;"><g transform="translate(288.62837, 217.350538)"><path style="stroke:none" d="M 10.84375 -7.34375 L 29.671875 -7.34375 L 28.390625 0 L 0.640625 0 L 8.34375 -44.359375 L 17.265625 -44.359375 Z M 10.84375 -7.34375 "/></g></g><g style="fill:#0107ff;fill-opacity:1;"><g transform="translate(318.77355, 217.350538)"><path style="stroke:none" d="M 26.71875 -9.140625 L 11.234375 -9.140625 L 6.671875 0 L -3.171875 0 L 20.53125 -44.359375 L 28.78125 -44.359375 L 37.234375 0 L 28.125 0 Z M 14.890625 -16.546875 L 25.59375 -16.546875 L 23.09375 -33.046875 Z M 14.890625 -16.546875 "/></g></g><g style="fill:#0107ff;fill-opacity:1;"><g transform="translate(356.868346, 217.350538)"><path style="stroke:none" d="M 25.046875 -11.84375 C 25.472656 -14.257812 24.285156 -16.109375 21.484375 -17.390625 L 15.59375 -19.734375 C 8.769531 -22.785156 5.53125 -26.984375 5.875 -32.328125 C 6.019531 -34.804688 6.832031 -37 8.3125 -38.90625 C 9.800781 -40.8125 11.882812 -42.304688 14.5625 -43.390625 C 17.238281 -44.484375 20.132812 -45.007812 23.25 -44.96875 C 27.53125 -44.882812 30.988281 -43.609375 33.625 -41.140625 C 36.269531 -38.671875 37.570312 -35.363281 37.53125 -31.21875 L 28.640625 -31.21875 C 28.734375 -33.226562 28.285156 -34.789062 27.296875 -35.90625 C 26.316406 -37.03125 24.789062 -37.613281 22.71875 -37.65625 C 20.695312 -37.695312 18.929688 -37.234375 17.421875 -36.265625 C 15.921875 -35.304688 15.03125 -33.984375 14.75 -32.296875 C 14.363281 -30.078125 15.84375 -28.316406 19.1875 -27.015625 L 23.21875 -25.5 L 25.53125 -24.4375 C 31.519531 -21.46875 34.320312 -17.300781 33.9375 -11.9375 C 33.75 -9.320312 32.910156 -7.0625 31.421875 -5.15625 C 29.929688 -3.257812 27.898438 -1.800781 25.328125 -0.78125 C 22.765625 0.226562 19.9375 0.703125 16.84375 0.640625 C 13.695312 0.578125 10.894531 -0.0820312 8.4375 -1.34375 C 5.976562 -2.601562 4.109375 -4.378906 2.828125 -6.671875 C 1.628906 -8.804688 1.070312 -11.242188 1.15625 -13.984375 L 10.078125 -13.953125 C 9.796875 -9.140625 12.164062 -6.691406 17.1875 -6.609375 C 19.351562 -6.609375 21.132812 -7.082031 22.53125 -8.03125 C 23.9375 -8.988281 24.773438 -10.257812 25.046875 -11.84375 Z M 25.046875 -11.84375 "/></g></g><g style="fill:#0107ff;fill-opacity:1;"><g transform="translate(391.429982, 217.350538)"><path style="stroke:none" d="M 25.046875 -11.84375 C 25.472656 -14.257812 24.285156 -16.109375 21.484375 -17.390625 L 15.59375 -19.734375 C 8.769531 -22.785156 5.53125 -26.984375 5.875 -32.328125 C 6.019531 -34.804688 6.832031 -37 8.3125 -38.90625 C 9.800781 -40.8125 11.882812 -42.304688 14.5625 -43.390625 C 17.238281 -44.484375 20.132812 -45.007812 23.25 -44.96875 C 27.53125 -44.882812 30.988281 -43.609375 33.625 -41.140625 C 36.269531 -38.671875 37.570312 -35.363281 37.53125 -31.21875 L 28.640625 -31.21875 C 28.734375 -33.226562 28.285156 -34.789062 27.296875 -35.90625 C 26.316406 -37.03125 24.789062 -37.613281 22.71875 -37.65625 C 20.695312 -37.695312 18.929688 -37.234375 17.421875 -36.265625 C 15.921875 -35.304688 15.03125 -33.984375 14.75 -32.296875 C 14.363281 -30.078125 15.84375 -28.316406 19.1875 -27.015625 L 23.21875 -25.5 L 25.53125 -24.4375 C 31.519531 -21.46875 34.320312 -17.300781 33.9375 -11.9375 C 33.75 -9.320312 32.910156 -7.0625 31.421875 -5.15625 C 29.929688 -3.257812 27.898438 -1.800781 25.328125 -0.78125 C 22.765625 0.226562 19.9375 0.703125 16.84375 0.640625 C 13.695312 0.578125 10.894531 -0.0820312 8.4375 -1.34375 C 5.976562 -2.601562 4.109375 -4.378906 2.828125 -6.671875 C 1.628906 -8.804688 1.070312 -11.242188 1.15625 -13.984375 L 10.078125 -13.953125 C 9.796875 -9.140625 12.164062 -6.691406 17.1875 -6.609375 C 19.351562 -6.609375 21.132812 -7.082031 22.53125 -8.03125 C 23.9375 -8.988281 24.773438 -10.257812 25.046875 -11.84375 Z M 25.046875 -11.84375 "/></g></g><g style="fill:#0107ff;fill-opacity:1;"><g transform="translate(425.991619, 217.350538)"><path style="stroke:none" d="M 19.796875 -44.359375 L 25.25 -12.28125 L 41.796875 -44.359375 L 53.671875 -44.359375 L 45.96875 0 L 37.015625 0 L 39.203125 -12.640625 L 43.53125 -32.390625 L 26.53125 0 L 20.40625 0 L 14.46875 -33.515625 L 11.609375 -11.671875 L 9.5625 0 L 0.640625 0 L 8.34375 -44.359375 Z M 19.796875 -44.359375 "/></g></g><g style="fill:#0107ff;fill-opacity:1;"><g transform="translate(476.36109, 217.350538)"><path style="stroke:none" d="M 26.71875 -9.140625 L 11.234375 -9.140625 L 6.671875 0 L -3.171875 0 L 20.53125 -44.359375 L 28.78125 -44.359375 L 37.234375 0 L 28.125 0 Z M 14.890625 -16.546875 L 25.59375 -16.546875 L 23.09375 -33.046875 Z M 14.890625 -16.546875 "/></g></g><g style="fill:#0107ff;fill-opacity:1;"><g transform="translate(514.455872, 217.350538)"><path style="stroke:none" d="M 19.65625 -16.234375 L 12.40625 -16.234375 L 9.5625 0 L 0.640625 0 L 8.34375 -44.359375 L 23.03125 -44.328125 C 27.945312 -44.328125 31.726562 -43.164062 34.375 -40.84375 C 37.03125 -38.53125 38.203125 -35.316406 37.890625 -31.203125 C 37.460938 -25.109375 34.21875 -20.867188 28.15625 -18.484375 L 34.390625 -0.484375 L 34.390625 0 L 24.890625 0 Z M 13.671875 -23.640625 L 20.3125 -23.578125 C 22.675781 -23.617188 24.625 -24.253906 26.15625 -25.484375 C 27.6875 -26.710938 28.601562 -28.382812 28.90625 -30.5 C 29.195312 -32.46875 28.882812 -34.007812 27.96875 -35.125 C 27.050781 -36.238281 25.597656 -36.835938 23.609375 -36.921875 L 16 -36.953125 Z M 13.671875 -23.640625 "/></g></g><g style="fill:#0107ff;fill-opacity:1;"><g transform="translate(550.449054, 217.350538)"><path style="stroke:none" d="M 39.484375 -36.953125 L 26.328125 -36.953125 L 19.921875 0 L 11 0 L 17.390625 -36.953125 L 4.390625 -36.953125 L 5.703125 -44.359375 L 40.796875 -44.359375 Z M 39.484375 -36.953125 "/></g></g></g></svg>